<?xml version="1.0" encoding="utf-8"?>
<!-- Generator: Adobe Illustrator 23.0.1, SVG Export Plug-In . SVG Version: 6.00 Build 0)  -->
<svg version="1.1" xmlns="http://www.w3.org/2000/svg" xmlns:xlink="http://www.w3.org/1999/xlink" x="0px" y="0px"
	 viewBox="0 0 612 612" style="enable-background:new 0 0 612 612;" xml:space="preserve">
<style type="text/css">
	.st0{fill:#FFFFFF;}
</style>
<g id="Capa_2">
</g>
<g id="Capa_1">
	<g>
		<path class="st0" d="M297.3,285.6c0.3,0,0.5,0,0.7,0"/>
		<path class="st0" d="M269.9,289.2c0,0,0.2-0.1,0.7-0.2"/>
		<g>
			<path class="st0" d="M101.8,294c0-0.8,0.7-1.4,1.6-1.4h45.4c0.9,0,1.6,0.6,1.6,1.4l0,0c0,0.8-0.7,1.4-1.6,1.4h-45.4
				C102.5,295.3,101.8,294.7,101.8,294L101.8,294z"/>
			<rect x="124.2" y="294" class="st0" width="3.7" height="7.1"/>
			<path class="st0" d="M153.3,285.7c0-1-0.8-1.7-1.7-1.7h-1.7h-0.8h-0.8h-1.7c-1,0-1.7,0.8-1.7,1.7l-2.4,20.3l2.4,20.3
				c0,1,0.8,1.7,1.7,1.7h1.7h0.8h0.8h1.7c1,0,1.7-0.8,1.7-1.7l2.4-20.3L153.3,285.7z"/>
			<path class="st0" d="M169.7,300c0-0.3-0.2-0.5-0.5-0.5h-0.5h-0.2h-0.2h-0.5c-0.3,0-0.5,0.2-0.5,0.5l-0.7,6l0.7,6
				c0,0.3,0.2,0.5,0.5,0.5h0.5h0.2h0.2h0.5c0.3,0,0.5-0.2,0.5-0.5l0.7-6L169.7,300z"/>
			<path class="st0" d="M129.8,298.5c-0.3-0.5-0.4-0.7-1-0.7h-1h-3h-0.5h-1c-0.5,0-0.7,0.3-1,0.7c-0.2,0.5-4,7.5-4,7.5s3.7,7,4,7.5
				c0.2,0.4,0.4,0.7,1,0.7h1h0.5h3h1c0.5,0,0.7-0.2,1-0.7c0.3-0.6,4-7.5,4-7.5S130,299,129.8,298.5z"/>
			<path class="st0" d="M376.2,306c-0.5-10.2-17-20.3-47.1-20.8l-31.1-0.3h-0.7c-10.8,0.1-23.6,2.8-26.7,3.5
				c-0.5,0.1-0.7,0.2-0.7,0.2c-16.7,4.4-40.7,11.1-40.7,11.1s-3.7,0.1-9.6,0.4L118,304.2c-1.7,0.4-2.7,0.9-2.7,1.8c0,0,0,0,0,0
				c0,0,0,0,0,0c0,0.9,1,1.4,2.7,1.8l101.6,4.2c5.9,0.2,9.6,0.4,9.6,0.4s24.1,6.7,40.7,11.1c0,0,0.2,0,0.7,0.2
				c3,0.7,15.9,3.4,26.7,3.5h0.7l31.1-0.3C359.3,326.4,375.7,316.3,376.2,306C376.2,306,376.2,306,376.2,306
				C376.2,306,376.2,306,376.2,306z"/>
			<path class="st0" d="M128.7,293.3c0,0.9-0.7,1.6-1.6,1.6h-2c-0.9,0-1.6-0.7-1.6-1.6l0,0c0-0.9,0.7-1.6,1.6-1.6h2
				C128,291.7,128.7,292.4,128.7,293.3L128.7,293.3z"/>
		</g>
		<g>
			<path class="st0" d="M397.9,390.5l-3.7-3.7c35.3-36.8,41.4-86.3,27.1-125.6c-5.1-14-12.7-27.5-22.4-38.8
				c-0.3-0.4-3.2-3.5-4.3-4.7c-1.3-1.3-2.6-2.5-3.9-3.8l-3.8,3.8c-36.8-35.4-86.4-41.5-125.7-27.2c-14,5.1-27.5,12.7-38.8,22.4
				c-0.4,0.3-3.5,3.2-4.7,4.3c-1.3,1.3-2.5,2.6-3.8,3.9l3.8,3.8c-35.4,36.8-41.5,86.4-27.2,125.7c5.1,14,12.7,27.5,22.4,38.7
				c0.3,0.4,3.2,3.5,4.3,4.7c1.3,1.3,2.6,2.5,3.9,3.8l0.2-0.2c0,0,0.1,0.1,0.1,0.1l3.5-3.5c36.8,35.3,86.3,41.4,125.6,27.1
				c14-5.1,27.5-12.7,38.8-22.4c0.4-0.3,3.5-3.2,4.7-4.3c1.3-1.3,2.5-2.6,3.8-3.9L397.9,390.5C397.8,390.6,397.9,390.6,397.9,390.5z
				 M304.1,402.2c-12.4-0.2-24-1.9-35.7-6c-10.4-3.6-20.2-9.6-28.5-16.7l14.2-14.2c27.7,28.5,77.2,29.3,107.6,3.6l6.6,6.6
				c-0.3,0.3-0.6,0.6-0.9,0.9c-0.4,0.4-0.3,0.3-0.2,0.1C350.3,392.2,327.3,402.5,304.1,402.2z M235.5,367.3
				c-0.4-0.4-0.3-0.3-0.1-0.2c-15.5-16.9-25.9-39.8-25.6-63.1c0.2-12.4,1.9-24,6-35.7c3.6-10.4,9.7-20.3,16.8-28.7l0.1,0.1l14.1,14
				c-28.6,27.7-29.4,77.3-3.8,107.7l-6.6,6.6C236.1,367.9,235.8,367.6,235.5,367.3z M307.9,209.8c12.4,0.2,24,1.9,35.7,6
				c10.4,3.6,20.3,9.7,28.7,16.8l-0.1,0.1l-14.1,14.1c-27.7-28.6-77.3-29.4-107.7-3.8l-6.6-6.6c0.3-0.3,0.6-0.6,0.9-0.9
				c0.4-0.4,0.3-0.3,0.2-0.1C261.7,219.8,284.7,209.5,307.9,209.8z M376.5,244.7c0.4,0.4,0.3,0.3,0.1,0.2
				c15.5,16.9,25.9,39.8,25.6,63.1c-0.2,12.4-1.9,24-6,35.7c-3.6,10.4-9.7,20.2-16.7,28.5L365.4,358c28.5-27.7,29.3-77.2,3.7-107.6
				l6.6-6.6C375.9,244.1,376.2,244.4,376.5,244.7z M351.9,363c-13.5,11.1-29.9,18.8-47.8,18.8c-18.2,0-35.3-5.4-49.7-16.7l14.1-14.1
				c21.1,20.1,55.8,21.5,78.6,3.5l6.7,6.7C353.2,361.7,352.6,362.4,351.9,363z M249,351.9c-11.1-13.5-18.8-29.9-18.8-47.8
				c0-18.2,5.4-35.4,16.8-49.8l0.1,0.1l14,14c-20.2,21-21.6,55.8-3.7,78.7l-6.7,6.7C250.3,353.2,249.6,352.6,249,351.9z M260.1,249
				c13.5-11.2,29.9-18.8,47.8-18.8c18.2,0,35.4,5.4,49.8,16.8l-0.1,0.1l-14,14c-21-20.2-55.8-21.6-78.7-3.7l-6.7-6.7
				C258.8,250.3,259.4,249.6,260.1,249z M363,260.1c11.2,13.5,18.8,29.9,18.8,47.8c0,18.2-5.4,35.4-16.7,49.7l-14.1-14.1
				c20.1-21,21.5-55.7,3.6-78.6l6.7-6.7C361.7,258.8,362.4,259.5,363,260.1z M337.5,348.4c-9.9,8.5-22.3,12.7-35.2,13
				c-6.2,0.1-21.4-1.7-33.3-10.9l37.1-37.1l33.3,33.3C338.8,347.3,338.2,347.8,337.5,348.4z M263.6,337.5
				c-8.5-9.9-12.7-22.3-13-35.2c-0.1-6.2,1.7-21.5,11-33.4l0.1,0.1l37,37l-0.1,0.1l0,0l-33.3,33.3
				C264.7,338.8,264.2,338.2,263.6,337.5z M274.5,263.6c9.9-8.5,22.3-12.7,35.2-13c6.2-0.1,21.5,1.7,33.4,11l-0.1,0.1c0,0,0,0,0,0
				l0,0c0,0,0,0,0,0l-37,37l-0.1-0.1l0,0l-33.3-33.3C273.2,264.7,273.8,264.2,274.5,263.6z M348.4,274.5c8.5,9.9,12.7,22.3,13,35.2
				c0.1,6.2-1.7,21.4-10.9,33.3l-37-37.1l33.3-33.3C347.3,273.2,347.8,273.8,348.4,274.5z M422.6,308.9c-0.1,7-0.3,45.6-28.6,77.7
				l-14.2-14.2c35.7-38.7,30.7-78.8,22.1-105.1c-3.8-11.5-10.6-22.3-18.3-31.5l6.5-6.5c0.6,0.6,1.2,1.2,1.8,1.9
				c0.3,0.3,0.3,0.3,0.2,0.2C411,252.3,423.2,280.4,422.6,308.9z M231.2,220.1c0.3-0.3,0.3-0.3,0.2-0.2c20.8-18.9,49-31.1,77.4-30.6
				c7,0.1,45.7,0.3,77.8,28.7l-0.1,0.1l-14.1,14.1c-38.8-35.8-78.9-30.8-105.2-22.2c-11.5,3.8-22.3,10.6-31.5,18.3l-6.5-6.5
				C229.9,221.4,230.5,220.8,231.2,220.1z M220.1,380.8c-0.3-0.3-0.3-0.3-0.2-0.2c-18.9-20.8-31.1-49-30.5-77.4
				c0.1-7,0.3-45.7,28.7-77.8l0.1,0.1l14.1,14.1c-35.8,38.8-30.8,78.9-22.2,105.2c3.8,11.5,10.6,22.3,18.3,31.5l-6.5,6.5
				C221.4,382.1,220.8,381.5,220.1,380.8z M380.8,391.9c-0.3,0.3-0.3,0.3-0.2,0.2c-20.8,18.9-49,31.1-77.4,30.6
				c-7-0.1-45.6-0.3-77.7-28.6l14.2-14.2c38.7,35.7,78.8,30.7,105.1,22c11.5-3.8,22.3-10.6,31.5-18.3l6.5,6.5
				C382.1,390.6,381.5,391.2,380.8,391.9z"/>
		</g>
	</g>
</g>
</svg>
