<?xml version="1.0" encoding="UTF-8"?>
<svg width="62px" height="62px" viewBox="0 0 62 62" version="1.1" xmlns="http://www.w3.org/2000/svg" xmlns:xlink="http://www.w3.org/1999/xlink">
    <!-- Generator: Sketch 57.1 (83088) - https://sketch.com -->
    <title>Mail</title>
    <desc>Created with Sketch.</desc>
    <g id="Page-1" stroke="none" stroke-width="1" fill="none" fill-rule="evenodd">
        <g id="Desktop-HD-Copy-13" transform="translate(-1048.000000, -7114.000000)">
            <g id="Mail" transform="translate(1049.000000, 7115.000000)">
                <g id="correo-electronico-lleno-sobre-cerrado" transform="translate(15.000000, 20.000000)" fill="#FFFFFF" fill-rule="nonzero">
                    <path d="M15.0376471,11.994478 L15.0440686,11.994478 C15.2702941,11.994478 15.4938725,11.9290453 15.6747549,11.8099078 L15.7238235,11.7784863 C15.7345098,11.7715472 15.7456863,11.7652434 15.7569118,11.7577668 L16.3283824,11.2864455 L29.9685294,0.0654327775 C29.9402941,0.0265835929 29.8922059,0 29.8409804,0 L0.158480392,0 C0.121666667,0 0.0875,0.0132917965 0.0602941176,0.0356239692 L14.3311275,11.7614318 C14.5109804,11.9098894 14.767598,11.994478 15.0376471,11.994478 Z M0,1.58998229 L0,18.2228086 L10.2230392,9.99015332 L0,1.58998229 Z M19.7876471,10.0460082 L30,18.22706 L30,1.64529962 L19.7876471,10.0460082 Z M16.5407353,12.716291 C16.1336275,13.0492701 15.6011275,13.2328141 15.0419118,13.2328141 C14.4805882,13.2328141 13.9485784,13.0503451 13.542549,12.7189298 L11.2011275,10.7938672 L0,19.8127909 L0,19.8414758 C0,19.9271395 0.073627451,20 0.160588235,20 L29.8415196,20 C29.9268627,20 29.999951,19.9271395 29.999951,19.8409382 L29.999951,19.8143547 L18.8084804,10.8503085 L16.5407353,12.716291 Z" id="Shape"></path>
                </g>
                <circle id="Oval" stroke="#FFFFFF" cx="30" cy="30" r="30"></circle>
            </g>
        </g>
    </g>
</svg>