<?xml version="1.0" encoding="UTF-8"?>
<svg width="62px" height="62px" viewBox="0 0 62 62" version="1.1" xmlns="http://www.w3.org/2000/svg" xmlns:xlink="http://www.w3.org/1999/xlink">
    <!-- Generator: Sketch 57.1 (83088) - https://sketch.com -->
    <title>Whatsapp</title>
    <desc>Created with Sketch.</desc>
    <g id="Page-1" stroke="none" stroke-width="1" fill="none" fill-rule="evenodd">
        <g id="Desktop-HD-Copy-13" transform="translate(-331.000000, -7114.000000)">
            <g id="Whatsapp" transform="translate(332.000000, 7115.000000)">
                <path d="M23.3501948,18.5896424 C22.9210896,17.5292477 22.5706537,17.4907138 21.8983888,17.4478984 L21.1317207,17.4193548 C20.2592068,17.4193548 19.3437822,17.6762472 18.7916668,18.237129 C18.1194019,18.9221753 16.4516129,20.5177625 16.4516129,23.7917134 C16.4516129,27.0656642 18.8445898,30.2311494 19.1692794,30.6750023 C19.5054119,31.1031563 23.8350838,37.9336396 30.5591629,40.7109319 C35.8171325,42.8845269 37.3762149,42.6832946 38.5734185,42.4278294 C40.3213072,42.052481 42.5126046,40.7637375 43.06472,39.2081114 C43.6168354,37.6524852 43.6168354,36.3252078 43.4537754,36.0397718 C43.2907154,35.7543358 42.848737,35.6116178 42.1764722,35.2619588 C41.5042073,34.9122997 38.237286,33.3167125 37.6179441,33.1012083 C37.0129058,32.8728595 36.435044,32.9542087 35.9773318,33.5978669 C35.3336739,34.4969903 34.7000285,35.4103855 34.1893933,35.9584226 C33.7860343,36.3865766 33.1266426,36.4436638 32.5759575,36.215315 C31.8364662,35.9070441 29.7653182,35.1820367 27.212142,32.9142477 C25.2353972,31.1588164 23.8908674,28.9695223 23.5003817,28.3130195 C23.1098959,27.6422449 23.4603319,27.2526248 23.7692876,26.8901211 C24.1054201,26.4733845 24.427249,26.1793855 24.7648118,25.7911925 C25.1023746,25.4029996 25.2897505,25.20034 25.5043032,24.7450696 C25.7331593,24.3169156 25.5715296,23.8459462 25.4099,23.5105589 C25.2482704,23.1751716 23.9037406,19.8997936 23.3530555,18.5725162 L23.3501948,18.5896424 Z" id="Path" fill="#FEFEFE" fill-rule="nonzero"></path>
                <circle id="Oval" stroke="#FFFFFF" cx="30" cy="30" r="30"></circle>
            </g>
        </g>
    </g>
</svg>